%TF.GenerationSoftware,KiCad,Pcbnew,7.0.9*%
%TF.CreationDate,2023-11-30T13:54:46-08:00*%
%TF.ProjectId,Button-Board,42757474-6f6e-42d4-926f-6172642e6b69,rev?*%
%TF.SameCoordinates,Original*%
%TF.FileFunction,Copper,L2,Bot*%
%TF.FilePolarity,Positive*%
%FSLAX46Y46*%
G04 Gerber Fmt 4.6, Leading zero omitted, Abs format (unit mm)*
G04 Created by KiCad (PCBNEW 7.0.9) date 2023-11-30 13:54:46*
%MOMM*%
%LPD*%
G01*
G04 APERTURE LIST*
%TA.AperFunction,ComponentPad*%
%ADD10R,1.700000X1.700000*%
%TD*%
%TA.AperFunction,ComponentPad*%
%ADD11O,1.700000X1.700000*%
%TD*%
%TA.AperFunction,ViaPad*%
%ADD12C,0.800000*%
%TD*%
%TA.AperFunction,Conductor*%
%ADD13C,0.500000*%
%TD*%
G04 APERTURE END LIST*
D10*
%TO.P,J2,1,Pin_1*%
%TO.N,VCC*%
X88900000Y-50800000D03*
D11*
%TO.P,J2,2,Pin_2*%
X88900000Y-53340000D03*
%TD*%
D10*
%TO.P,J3,1,Pin_1*%
%TO.N,GND*%
X76200000Y-58420000D03*
D11*
%TO.P,J3,2,Pin_2*%
X76200000Y-60960000D03*
%TD*%
D10*
%TO.P,J4,1,Pin_1*%
%TO.N,/OUT*%
X88900000Y-58420000D03*
D11*
%TO.P,J4,2,Pin_2*%
X88900000Y-60960000D03*
%TD*%
D10*
%TO.P,J1,1,Pin_1*%
%TO.N,GND*%
X76200000Y-50800000D03*
D11*
%TO.P,J1,2,Pin_2*%
X76200000Y-53340000D03*
%TD*%
D12*
%TO.N,GND*%
X87630000Y-55880000D03*
X88900000Y-55880000D03*
X86360000Y-62230000D03*
X86106000Y-49276000D03*
%TO.N,VCC*%
X82550000Y-60247000D03*
%TD*%
D13*
%TO.N,VCC*%
X88900000Y-53340000D02*
X88900000Y-50800000D01*
X82550000Y-57404000D02*
X82550000Y-57453000D01*
X88900000Y-53340000D02*
X86614000Y-53340000D01*
X86614000Y-53340000D02*
X82550000Y-57404000D01*
X82550000Y-58977000D02*
X82550000Y-60247000D01*
X82550000Y-58977000D02*
X82550000Y-57453000D01*
%TD*%
%TA.AperFunction,Conductor*%
%TO.N,GND*%
G36*
X76450000Y-60524498D02*
G01*
X76342315Y-60475320D01*
X76235763Y-60460000D01*
X76164237Y-60460000D01*
X76057685Y-60475320D01*
X75950000Y-60524498D01*
X75950000Y-58855501D01*
X76057685Y-58904680D01*
X76164237Y-58920000D01*
X76235763Y-58920000D01*
X76342315Y-58904680D01*
X76450000Y-58855501D01*
X76450000Y-60524498D01*
G37*
%TD.AperFunction*%
%TA.AperFunction,Conductor*%
G36*
X76450000Y-52904498D02*
G01*
X76342315Y-52855320D01*
X76235763Y-52840000D01*
X76164237Y-52840000D01*
X76057685Y-52855320D01*
X75950000Y-52904498D01*
X75950000Y-51235501D01*
X76057685Y-51284680D01*
X76164237Y-51300000D01*
X76235763Y-51300000D01*
X76342315Y-51284680D01*
X76450000Y-51235501D01*
X76450000Y-52904498D01*
G37*
%TD.AperFunction*%
%TA.AperFunction,Conductor*%
G36*
X90620539Y-48280185D02*
G01*
X90666294Y-48332989D01*
X90677500Y-48384500D01*
X90677500Y-63375500D01*
X90657815Y-63442539D01*
X90605011Y-63488294D01*
X90553500Y-63499500D01*
X74546500Y-63499500D01*
X74479461Y-63479815D01*
X74433706Y-63427011D01*
X74422500Y-63375500D01*
X74422500Y-59317844D01*
X74850000Y-59317844D01*
X74856401Y-59377372D01*
X74856403Y-59377379D01*
X74906645Y-59512086D01*
X74906649Y-59512093D01*
X74992809Y-59627187D01*
X74992812Y-59627190D01*
X75107906Y-59713350D01*
X75107913Y-59713354D01*
X75239986Y-59762614D01*
X75295920Y-59804485D01*
X75320337Y-59869949D01*
X75305486Y-59938222D01*
X75284335Y-59966477D01*
X75161886Y-60088926D01*
X75026400Y-60282420D01*
X75026399Y-60282422D01*
X74926570Y-60496507D01*
X74926567Y-60496513D01*
X74869364Y-60709999D01*
X74869364Y-60710000D01*
X75766314Y-60710000D01*
X75740507Y-60750156D01*
X75700000Y-60888111D01*
X75700000Y-61031889D01*
X75740507Y-61169844D01*
X75766314Y-61210000D01*
X74869364Y-61210000D01*
X74926567Y-61423486D01*
X74926570Y-61423492D01*
X75026399Y-61637578D01*
X75161894Y-61831082D01*
X75328917Y-61998105D01*
X75522421Y-62133600D01*
X75736507Y-62233429D01*
X75736516Y-62233433D01*
X75950000Y-62290634D01*
X75950000Y-61395501D01*
X76057685Y-61444680D01*
X76164237Y-61460000D01*
X76235763Y-61460000D01*
X76342315Y-61444680D01*
X76450000Y-61395501D01*
X76450000Y-62290633D01*
X76663483Y-62233433D01*
X76663492Y-62233429D01*
X76877578Y-62133600D01*
X77071082Y-61998105D01*
X77238105Y-61831082D01*
X77373600Y-61637578D01*
X77473429Y-61423492D01*
X77473432Y-61423486D01*
X77530636Y-61210000D01*
X76633686Y-61210000D01*
X76659493Y-61169844D01*
X76700000Y-61031889D01*
X76700000Y-60888111D01*
X76659493Y-60750156D01*
X76633686Y-60710000D01*
X77530636Y-60710000D01*
X77530635Y-60709999D01*
X77473432Y-60496513D01*
X77473429Y-60496507D01*
X77373600Y-60282422D01*
X77373599Y-60282420D01*
X77348798Y-60247000D01*
X81644540Y-60247000D01*
X81664326Y-60435256D01*
X81664327Y-60435259D01*
X81722818Y-60615277D01*
X81722821Y-60615284D01*
X81817467Y-60779216D01*
X81915517Y-60888111D01*
X81944129Y-60919888D01*
X82097265Y-61031148D01*
X82097270Y-61031151D01*
X82270192Y-61108142D01*
X82270197Y-61108144D01*
X82455354Y-61147500D01*
X82455355Y-61147500D01*
X82644644Y-61147500D01*
X82644646Y-61147500D01*
X82829803Y-61108144D01*
X83002730Y-61031151D01*
X83100661Y-60960000D01*
X87544341Y-60960000D01*
X87564936Y-61195403D01*
X87564938Y-61195413D01*
X87626094Y-61423655D01*
X87626096Y-61423659D01*
X87626097Y-61423663D01*
X87725847Y-61637578D01*
X87725965Y-61637830D01*
X87725967Y-61637834D01*
X87834281Y-61792521D01*
X87861505Y-61831401D01*
X88028599Y-61998495D01*
X88125384Y-62066265D01*
X88222165Y-62134032D01*
X88222167Y-62134033D01*
X88222170Y-62134035D01*
X88436337Y-62233903D01*
X88664592Y-62295063D01*
X88852918Y-62311539D01*
X88899999Y-62315659D01*
X88900000Y-62315659D01*
X88900001Y-62315659D01*
X88939234Y-62312226D01*
X89135408Y-62295063D01*
X89363663Y-62233903D01*
X89577830Y-62134035D01*
X89771401Y-61998495D01*
X89938495Y-61831401D01*
X90074035Y-61637830D01*
X90173903Y-61423663D01*
X90235063Y-61195408D01*
X90255659Y-60960000D01*
X90235063Y-60724592D01*
X90173903Y-60496337D01*
X90074035Y-60282171D01*
X89938495Y-60088599D01*
X89816567Y-59966671D01*
X89783084Y-59905351D01*
X89788068Y-59835659D01*
X89829939Y-59779725D01*
X89860915Y-59762810D01*
X89992331Y-59713796D01*
X90107546Y-59627546D01*
X90193796Y-59512331D01*
X90244091Y-59377483D01*
X90250500Y-59317873D01*
X90250499Y-57522128D01*
X90244091Y-57462517D01*
X90197701Y-57338140D01*
X90193797Y-57327671D01*
X90193793Y-57327664D01*
X90107547Y-57212455D01*
X90107544Y-57212452D01*
X89992335Y-57126206D01*
X89992328Y-57126202D01*
X89857482Y-57075908D01*
X89857483Y-57075908D01*
X89797883Y-57069501D01*
X89797881Y-57069500D01*
X89797873Y-57069500D01*
X89797864Y-57069500D01*
X88002129Y-57069500D01*
X88002123Y-57069501D01*
X87942516Y-57075908D01*
X87807671Y-57126202D01*
X87807664Y-57126206D01*
X87692455Y-57212452D01*
X87692452Y-57212455D01*
X87606206Y-57327664D01*
X87606202Y-57327671D01*
X87555908Y-57462517D01*
X87549501Y-57522116D01*
X87549501Y-57522123D01*
X87549500Y-57522135D01*
X87549500Y-59317870D01*
X87549501Y-59317876D01*
X87555908Y-59377483D01*
X87606202Y-59512328D01*
X87606206Y-59512335D01*
X87692452Y-59627544D01*
X87692455Y-59627547D01*
X87807664Y-59713793D01*
X87807671Y-59713797D01*
X87939081Y-59762810D01*
X87995015Y-59804681D01*
X88019432Y-59870145D01*
X88004580Y-59938418D01*
X87983430Y-59966673D01*
X87861503Y-60088600D01*
X87725965Y-60282169D01*
X87725964Y-60282171D01*
X87626098Y-60496335D01*
X87626094Y-60496344D01*
X87564938Y-60724586D01*
X87564936Y-60724596D01*
X87544341Y-60959999D01*
X87544341Y-60960000D01*
X83100661Y-60960000D01*
X83155871Y-60919888D01*
X83282533Y-60779216D01*
X83377179Y-60615284D01*
X83435674Y-60435256D01*
X83455460Y-60247000D01*
X83435674Y-60058744D01*
X83377179Y-59878716D01*
X83372231Y-59870145D01*
X83317113Y-59774677D01*
X83300500Y-59712677D01*
X83300500Y-57766230D01*
X83320185Y-57699191D01*
X83336819Y-57678549D01*
X86888549Y-54126819D01*
X86949872Y-54093334D01*
X86976230Y-54090500D01*
X87712299Y-54090500D01*
X87779338Y-54110185D01*
X87813873Y-54143376D01*
X87861505Y-54211401D01*
X88028599Y-54378495D01*
X88125384Y-54446265D01*
X88222165Y-54514032D01*
X88222167Y-54514033D01*
X88222170Y-54514035D01*
X88436337Y-54613903D01*
X88664592Y-54675063D01*
X88852918Y-54691539D01*
X88899999Y-54695659D01*
X88900000Y-54695659D01*
X88900001Y-54695659D01*
X88939234Y-54692226D01*
X89135408Y-54675063D01*
X89363663Y-54613903D01*
X89577830Y-54514035D01*
X89771401Y-54378495D01*
X89938495Y-54211401D01*
X90074035Y-54017830D01*
X90173903Y-53803663D01*
X90235063Y-53575408D01*
X90255659Y-53340000D01*
X90235063Y-53104592D01*
X90173903Y-52876337D01*
X90074035Y-52662171D01*
X90073581Y-52661523D01*
X89938496Y-52468600D01*
X89938492Y-52468596D01*
X89816567Y-52346671D01*
X89783084Y-52285351D01*
X89788068Y-52215659D01*
X89829939Y-52159725D01*
X89860915Y-52142810D01*
X89992331Y-52093796D01*
X90107546Y-52007546D01*
X90193796Y-51892331D01*
X90244091Y-51757483D01*
X90250500Y-51697873D01*
X90250499Y-49902128D01*
X90244091Y-49842517D01*
X90193884Y-49707906D01*
X90193797Y-49707671D01*
X90193793Y-49707664D01*
X90107547Y-49592455D01*
X90107544Y-49592452D01*
X89992335Y-49506206D01*
X89992328Y-49506202D01*
X89857482Y-49455908D01*
X89857483Y-49455908D01*
X89797883Y-49449501D01*
X89797881Y-49449500D01*
X89797873Y-49449500D01*
X89797864Y-49449500D01*
X88002129Y-49449500D01*
X88002123Y-49449501D01*
X87942516Y-49455908D01*
X87807671Y-49506202D01*
X87807664Y-49506206D01*
X87692455Y-49592452D01*
X87692452Y-49592455D01*
X87606206Y-49707664D01*
X87606202Y-49707671D01*
X87555908Y-49842517D01*
X87549501Y-49902116D01*
X87549501Y-49902123D01*
X87549500Y-49902135D01*
X87549500Y-51697870D01*
X87549501Y-51697876D01*
X87555908Y-51757483D01*
X87606202Y-51892328D01*
X87606206Y-51892335D01*
X87692452Y-52007544D01*
X87692455Y-52007547D01*
X87807664Y-52093793D01*
X87807671Y-52093797D01*
X87939082Y-52142810D01*
X87995016Y-52184681D01*
X88019433Y-52250145D01*
X88004582Y-52318418D01*
X87983430Y-52346673D01*
X87861506Y-52468596D01*
X87813874Y-52536623D01*
X87759297Y-52580248D01*
X87712299Y-52589500D01*
X86677705Y-52589500D01*
X86659735Y-52588191D01*
X86635972Y-52584710D01*
X86590533Y-52588686D01*
X86583931Y-52589264D01*
X86578530Y-52589500D01*
X86570289Y-52589500D01*
X86548579Y-52592037D01*
X86537724Y-52593306D01*
X86522419Y-52594645D01*
X86461199Y-52600001D01*
X86454132Y-52601460D01*
X86454120Y-52601404D01*
X86446763Y-52603035D01*
X86446777Y-52603092D01*
X86439743Y-52604759D01*
X86367575Y-52631025D01*
X86294675Y-52655181D01*
X86288126Y-52658236D01*
X86288101Y-52658183D01*
X86281308Y-52661471D01*
X86281334Y-52661523D01*
X86274880Y-52664764D01*
X86210708Y-52706971D01*
X86145347Y-52747285D01*
X86139683Y-52751765D01*
X86139647Y-52751719D01*
X86133798Y-52756484D01*
X86133835Y-52756528D01*
X86128310Y-52761164D01*
X86075597Y-52817035D01*
X82064358Y-56828272D01*
X82050729Y-56840051D01*
X82031468Y-56854390D01*
X81997898Y-56894397D01*
X81994253Y-56898376D01*
X81988409Y-56904222D01*
X81968059Y-56929959D01*
X81918695Y-56988789D01*
X81914729Y-56994819D01*
X81914682Y-56994788D01*
X81910630Y-57001147D01*
X81910679Y-57001177D01*
X81906889Y-57007321D01*
X81874424Y-57076941D01*
X81839960Y-57145566D01*
X81837488Y-57152357D01*
X81837432Y-57152336D01*
X81834960Y-57159450D01*
X81835015Y-57159469D01*
X81832742Y-57166327D01*
X81824975Y-57203946D01*
X81817207Y-57241565D01*
X81804001Y-57297284D01*
X81799498Y-57316286D01*
X81798661Y-57323454D01*
X81798601Y-57323447D01*
X81797835Y-57330945D01*
X81797895Y-57330951D01*
X81797265Y-57338140D01*
X81799500Y-57414916D01*
X81799500Y-59712677D01*
X81782887Y-59774677D01*
X81722821Y-59878714D01*
X81664327Y-60058740D01*
X81664326Y-60058744D01*
X81644540Y-60247000D01*
X77348798Y-60247000D01*
X77238113Y-60088926D01*
X77238108Y-60088920D01*
X77115665Y-59966477D01*
X77082180Y-59905154D01*
X77087164Y-59835462D01*
X77129036Y-59779529D01*
X77160013Y-59762614D01*
X77292086Y-59713354D01*
X77292093Y-59713350D01*
X77407187Y-59627190D01*
X77407190Y-59627187D01*
X77493350Y-59512093D01*
X77493354Y-59512086D01*
X77543596Y-59377379D01*
X77543598Y-59377372D01*
X77549999Y-59317844D01*
X77550000Y-59317827D01*
X77550000Y-58670000D01*
X76633686Y-58670000D01*
X76659493Y-58629844D01*
X76700000Y-58491889D01*
X76700000Y-58348111D01*
X76659493Y-58210156D01*
X76633686Y-58170000D01*
X77550000Y-58170000D01*
X77550000Y-57522172D01*
X77549999Y-57522155D01*
X77543598Y-57462627D01*
X77543596Y-57462620D01*
X77493354Y-57327913D01*
X77493350Y-57327906D01*
X77407190Y-57212812D01*
X77407187Y-57212809D01*
X77292093Y-57126649D01*
X77292086Y-57126645D01*
X77157379Y-57076403D01*
X77157372Y-57076401D01*
X77097844Y-57070000D01*
X76450000Y-57070000D01*
X76450000Y-57984498D01*
X76342315Y-57935320D01*
X76235763Y-57920000D01*
X76164237Y-57920000D01*
X76057685Y-57935320D01*
X75950000Y-57984498D01*
X75950000Y-57070000D01*
X75302155Y-57070000D01*
X75242627Y-57076401D01*
X75242620Y-57076403D01*
X75107913Y-57126645D01*
X75107906Y-57126649D01*
X74992812Y-57212809D01*
X74992809Y-57212812D01*
X74906649Y-57327906D01*
X74906645Y-57327913D01*
X74856403Y-57462620D01*
X74856401Y-57462627D01*
X74850000Y-57522155D01*
X74850000Y-58170000D01*
X75766314Y-58170000D01*
X75740507Y-58210156D01*
X75700000Y-58348111D01*
X75700000Y-58491889D01*
X75740507Y-58629844D01*
X75766314Y-58670000D01*
X74850000Y-58670000D01*
X74850000Y-59317844D01*
X74422500Y-59317844D01*
X74422500Y-51697844D01*
X74850000Y-51697844D01*
X74856401Y-51757372D01*
X74856403Y-51757379D01*
X74906645Y-51892086D01*
X74906649Y-51892093D01*
X74992809Y-52007187D01*
X74992812Y-52007190D01*
X75107906Y-52093350D01*
X75107913Y-52093354D01*
X75239986Y-52142614D01*
X75295920Y-52184485D01*
X75320337Y-52249949D01*
X75305486Y-52318222D01*
X75284335Y-52346477D01*
X75161886Y-52468926D01*
X75026400Y-52662420D01*
X75026399Y-52662422D01*
X74926570Y-52876507D01*
X74926567Y-52876513D01*
X74869364Y-53089999D01*
X74869364Y-53090000D01*
X75766314Y-53090000D01*
X75740507Y-53130156D01*
X75700000Y-53268111D01*
X75700000Y-53411889D01*
X75740507Y-53549844D01*
X75766314Y-53590000D01*
X74869364Y-53590000D01*
X74926567Y-53803486D01*
X74926570Y-53803492D01*
X75026399Y-54017578D01*
X75161894Y-54211082D01*
X75328917Y-54378105D01*
X75522421Y-54513600D01*
X75736507Y-54613429D01*
X75736516Y-54613433D01*
X75950000Y-54670634D01*
X75950000Y-53775501D01*
X76057685Y-53824680D01*
X76164237Y-53840000D01*
X76235763Y-53840000D01*
X76342315Y-53824680D01*
X76450000Y-53775501D01*
X76450000Y-54670633D01*
X76663483Y-54613433D01*
X76663492Y-54613429D01*
X76877578Y-54513600D01*
X77071082Y-54378105D01*
X77238105Y-54211082D01*
X77373600Y-54017578D01*
X77473429Y-53803492D01*
X77473432Y-53803486D01*
X77530636Y-53590000D01*
X76633686Y-53590000D01*
X76659493Y-53549844D01*
X76700000Y-53411889D01*
X76700000Y-53268111D01*
X76659493Y-53130156D01*
X76633686Y-53090000D01*
X77530636Y-53090000D01*
X77530635Y-53089999D01*
X77473432Y-52876513D01*
X77473429Y-52876507D01*
X77373600Y-52662422D01*
X77373599Y-52662420D01*
X77238113Y-52468926D01*
X77238108Y-52468920D01*
X77115665Y-52346477D01*
X77082180Y-52285154D01*
X77087164Y-52215462D01*
X77129036Y-52159529D01*
X77160013Y-52142614D01*
X77292086Y-52093354D01*
X77292093Y-52093350D01*
X77407187Y-52007190D01*
X77407190Y-52007187D01*
X77493350Y-51892093D01*
X77493354Y-51892086D01*
X77543596Y-51757379D01*
X77543598Y-51757372D01*
X77549999Y-51697844D01*
X77550000Y-51697827D01*
X77550000Y-51050000D01*
X76633686Y-51050000D01*
X76659493Y-51009844D01*
X76700000Y-50871889D01*
X76700000Y-50728111D01*
X76659493Y-50590156D01*
X76633686Y-50550000D01*
X77550000Y-50550000D01*
X77550000Y-49902172D01*
X77549999Y-49902155D01*
X77543598Y-49842627D01*
X77543596Y-49842620D01*
X77493354Y-49707913D01*
X77493350Y-49707906D01*
X77407190Y-49592812D01*
X77407187Y-49592809D01*
X77292093Y-49506649D01*
X77292086Y-49506645D01*
X77157379Y-49456403D01*
X77157372Y-49456401D01*
X77097844Y-49450000D01*
X76450000Y-49450000D01*
X76450000Y-50364498D01*
X76342315Y-50315320D01*
X76235763Y-50300000D01*
X76164237Y-50300000D01*
X76057685Y-50315320D01*
X75950000Y-50364498D01*
X75950000Y-49450000D01*
X75302155Y-49450000D01*
X75242627Y-49456401D01*
X75242620Y-49456403D01*
X75107913Y-49506645D01*
X75107906Y-49506649D01*
X74992812Y-49592809D01*
X74992809Y-49592812D01*
X74906649Y-49707906D01*
X74906645Y-49707913D01*
X74856403Y-49842620D01*
X74856401Y-49842627D01*
X74850000Y-49902155D01*
X74850000Y-50550000D01*
X75766314Y-50550000D01*
X75740507Y-50590156D01*
X75700000Y-50728111D01*
X75700000Y-50871889D01*
X75740507Y-51009844D01*
X75766314Y-51050000D01*
X74850000Y-51050000D01*
X74850000Y-51697844D01*
X74422500Y-51697844D01*
X74422500Y-48384500D01*
X74442185Y-48317461D01*
X74494989Y-48271706D01*
X74546500Y-48260500D01*
X90553500Y-48260500D01*
X90620539Y-48280185D01*
G37*
%TD.AperFunction*%
%TD*%
M02*
