%TF.GenerationSoftware,KiCad,Pcbnew,7.0.9*%
%TF.CreationDate,2023-11-30T13:54:46-08:00*%
%TF.ProjectId,Button-Board,42757474-6f6e-42d4-926f-6172642e6b69,rev?*%
%TF.SameCoordinates,Original*%
%TF.FileFunction,Legend,Bot*%
%TF.FilePolarity,Positive*%
%FSLAX46Y46*%
G04 Gerber Fmt 4.6, Leading zero omitted, Abs format (unit mm)*
G04 Created by KiCad (PCBNEW 7.0.9) date 2023-11-30 13:54:46*
%MOMM*%
%LPD*%
G01*
G04 APERTURE LIST*
%ADD10C,0.150000*%
%ADD11C,0.120000*%
%ADD12R,1.700000X1.700000*%
%ADD13O,1.700000X1.700000*%
G04 APERTURE END LIST*
D10*
X85483819Y-51422493D02*
X86198104Y-51422493D01*
X86198104Y-51422493D02*
X86340961Y-51374874D01*
X86340961Y-51374874D02*
X86436200Y-51279636D01*
X86436200Y-51279636D02*
X86483819Y-51136779D01*
X86483819Y-51136779D02*
X86483819Y-51041541D01*
X86483819Y-52374874D02*
X86483819Y-51898684D01*
X86483819Y-51898684D02*
X85483819Y-51898684D01*
X86388580Y-53279636D02*
X86436200Y-53232017D01*
X86436200Y-53232017D02*
X86483819Y-53089160D01*
X86483819Y-53089160D02*
X86483819Y-52993922D01*
X86483819Y-52993922D02*
X86436200Y-52851065D01*
X86436200Y-52851065D02*
X86340961Y-52755827D01*
X86340961Y-52755827D02*
X86245723Y-52708208D01*
X86245723Y-52708208D02*
X86055247Y-52660589D01*
X86055247Y-52660589D02*
X85912390Y-52660589D01*
X85912390Y-52660589D02*
X85721914Y-52708208D01*
X85721914Y-52708208D02*
X85626676Y-52755827D01*
X85626676Y-52755827D02*
X85531438Y-52851065D01*
X85531438Y-52851065D02*
X85483819Y-52993922D01*
X85483819Y-52993922D02*
X85483819Y-53089160D01*
X85483819Y-53089160D02*
X85531438Y-53232017D01*
X85531438Y-53232017D02*
X85579057Y-53279636D01*
X85483819Y-53993922D02*
X86198104Y-53993922D01*
X86198104Y-53993922D02*
X86340961Y-53946303D01*
X86340961Y-53946303D02*
X86436200Y-53851065D01*
X86436200Y-53851065D02*
X86483819Y-53708208D01*
X86483819Y-53708208D02*
X86483819Y-53612970D01*
X86483819Y-54946303D02*
X86483819Y-54470113D01*
X86483819Y-54470113D02*
X85483819Y-54470113D01*
X86388580Y-55851065D02*
X86436200Y-55803446D01*
X86436200Y-55803446D02*
X86483819Y-55660589D01*
X86483819Y-55660589D02*
X86483819Y-55565351D01*
X86483819Y-55565351D02*
X86436200Y-55422494D01*
X86436200Y-55422494D02*
X86340961Y-55327256D01*
X86340961Y-55327256D02*
X86245723Y-55279637D01*
X86245723Y-55279637D02*
X86055247Y-55232018D01*
X86055247Y-55232018D02*
X85912390Y-55232018D01*
X85912390Y-55232018D02*
X85721914Y-55279637D01*
X85721914Y-55279637D02*
X85626676Y-55327256D01*
X85626676Y-55327256D02*
X85531438Y-55422494D01*
X85531438Y-55422494D02*
X85483819Y-55565351D01*
X85483819Y-55565351D02*
X85483819Y-55660589D01*
X85483819Y-55660589D02*
X85531438Y-55803446D01*
X85531438Y-55803446D02*
X85579057Y-55851065D01*
X85483819Y-56565351D02*
X86198104Y-56565351D01*
X86198104Y-56565351D02*
X86340961Y-56517732D01*
X86340961Y-56517732D02*
X86436200Y-56422494D01*
X86436200Y-56422494D02*
X86483819Y-56279637D01*
X86483819Y-56279637D02*
X86483819Y-56184399D01*
X86483819Y-57517732D02*
X86483819Y-57041542D01*
X86483819Y-57041542D02*
X85483819Y-57041542D01*
X86388580Y-58422494D02*
X86436200Y-58374875D01*
X86436200Y-58374875D02*
X86483819Y-58232018D01*
X86483819Y-58232018D02*
X86483819Y-58136780D01*
X86483819Y-58136780D02*
X86436200Y-57993923D01*
X86436200Y-57993923D02*
X86340961Y-57898685D01*
X86340961Y-57898685D02*
X86245723Y-57851066D01*
X86245723Y-57851066D02*
X86055247Y-57803447D01*
X86055247Y-57803447D02*
X85912390Y-57803447D01*
X85912390Y-57803447D02*
X85721914Y-57851066D01*
X85721914Y-57851066D02*
X85626676Y-57898685D01*
X85626676Y-57898685D02*
X85531438Y-57993923D01*
X85531438Y-57993923D02*
X85483819Y-58136780D01*
X85483819Y-58136780D02*
X85483819Y-58232018D01*
X85483819Y-58232018D02*
X85531438Y-58374875D01*
X85531438Y-58374875D02*
X85579057Y-58422494D01*
X85483819Y-59136780D02*
X86198104Y-59136780D01*
X86198104Y-59136780D02*
X86340961Y-59089161D01*
X86340961Y-59089161D02*
X86436200Y-58993923D01*
X86436200Y-58993923D02*
X86483819Y-58851066D01*
X86483819Y-58851066D02*
X86483819Y-58755828D01*
X86483819Y-60089161D02*
X86483819Y-59612971D01*
X86483819Y-59612971D02*
X85483819Y-59612971D01*
X86388580Y-60993923D02*
X86436200Y-60946304D01*
X86436200Y-60946304D02*
X86483819Y-60803447D01*
X86483819Y-60803447D02*
X86483819Y-60708209D01*
X86483819Y-60708209D02*
X86436200Y-60565352D01*
X86436200Y-60565352D02*
X86340961Y-60470114D01*
X86340961Y-60470114D02*
X86245723Y-60422495D01*
X86245723Y-60422495D02*
X86055247Y-60374876D01*
X86055247Y-60374876D02*
X85912390Y-60374876D01*
X85912390Y-60374876D02*
X85721914Y-60422495D01*
X85721914Y-60422495D02*
X85626676Y-60470114D01*
X85626676Y-60470114D02*
X85531438Y-60565352D01*
X85531438Y-60565352D02*
X85483819Y-60708209D01*
X85483819Y-60708209D02*
X85483819Y-60803447D01*
X85483819Y-60803447D02*
X85531438Y-60946304D01*
X85531438Y-60946304D02*
X85579057Y-60993923D01*
D11*
%TO.C,J2*%
X90230000Y-54670000D02*
X87570000Y-54670000D01*
X90230000Y-52070000D02*
X90230000Y-54670000D01*
X90230000Y-52070000D02*
X87570000Y-52070000D01*
X90230000Y-50800000D02*
X90230000Y-49470000D01*
X90230000Y-49470000D02*
X88900000Y-49470000D01*
X87570000Y-52070000D02*
X87570000Y-54670000D01*
%TO.C,J3*%
X77530000Y-62290000D02*
X74870000Y-62290000D01*
X77530000Y-59690000D02*
X77530000Y-62290000D01*
X77530000Y-59690000D02*
X74870000Y-59690000D01*
X77530000Y-58420000D02*
X77530000Y-57090000D01*
X77530000Y-57090000D02*
X76200000Y-57090000D01*
X74870000Y-59690000D02*
X74870000Y-62290000D01*
%TO.C,J4*%
X90230000Y-62290000D02*
X87570000Y-62290000D01*
X90230000Y-59690000D02*
X90230000Y-62290000D01*
X90230000Y-59690000D02*
X87570000Y-59690000D01*
X90230000Y-58420000D02*
X90230000Y-57090000D01*
X90230000Y-57090000D02*
X88900000Y-57090000D01*
X87570000Y-59690000D02*
X87570000Y-62290000D01*
%TO.C,J1*%
X77530000Y-54670000D02*
X74870000Y-54670000D01*
X77530000Y-52070000D02*
X77530000Y-54670000D01*
X77530000Y-52070000D02*
X74870000Y-52070000D01*
X77530000Y-50800000D02*
X77530000Y-49470000D01*
X77530000Y-49470000D02*
X76200000Y-49470000D01*
X74870000Y-52070000D02*
X74870000Y-54670000D01*
%TD*%
%LPC*%
D12*
%TO.C,J2*%
X88900000Y-50800000D03*
D13*
X88900000Y-53340000D03*
%TD*%
D12*
%TO.C,J3*%
X76200000Y-58420000D03*
D13*
X76200000Y-60960000D03*
%TD*%
D12*
%TO.C,J4*%
X88900000Y-58420000D03*
D13*
X88900000Y-60960000D03*
%TD*%
D12*
%TO.C,J1*%
X76200000Y-50800000D03*
D13*
X76200000Y-53340000D03*
%TD*%
%LPD*%
M02*
