%TF.GenerationSoftware,KiCad,Pcbnew,7.0.9*%
%TF.CreationDate,2023-11-30T13:54:46-08:00*%
%TF.ProjectId,Button-Board,42757474-6f6e-42d4-926f-6172642e6b69,rev?*%
%TF.SameCoordinates,Original*%
%TF.FileFunction,Copper,L1,Top*%
%TF.FilePolarity,Positive*%
%FSLAX46Y46*%
G04 Gerber Fmt 4.6, Leading zero omitted, Abs format (unit mm)*
G04 Created by KiCad (PCBNEW 7.0.9) date 2023-11-30 13:54:46*
%MOMM*%
%LPD*%
G01*
G04 APERTURE LIST*
G04 Aperture macros list*
%AMRoundRect*
0 Rectangle with rounded corners*
0 $1 Rounding radius*
0 $2 $3 $4 $5 $6 $7 $8 $9 X,Y pos of 4 corners*
0 Add a 4 corners polygon primitive as box body*
4,1,4,$2,$3,$4,$5,$6,$7,$8,$9,$2,$3,0*
0 Add four circle primitives for the rounded corners*
1,1,$1+$1,$2,$3*
1,1,$1+$1,$4,$5*
1,1,$1+$1,$6,$7*
1,1,$1+$1,$8,$9*
0 Add four rect primitives between the rounded corners*
20,1,$1+$1,$2,$3,$4,$5,0*
20,1,$1+$1,$4,$5,$6,$7,0*
20,1,$1+$1,$6,$7,$8,$9,0*
20,1,$1+$1,$8,$9,$2,$3,0*%
G04 Aperture macros list end*
%TA.AperFunction,SMDPad,CuDef*%
%ADD10R,1.400000X2.100000*%
%TD*%
%TA.AperFunction,SMDPad,CuDef*%
%ADD11RoundRect,0.237500X-0.250000X-0.237500X0.250000X-0.237500X0.250000X0.237500X-0.250000X0.237500X0*%
%TD*%
%TA.AperFunction,SMDPad,CuDef*%
%ADD12RoundRect,0.237500X0.300000X0.237500X-0.300000X0.237500X-0.300000X-0.237500X0.300000X-0.237500X0*%
%TD*%
%TA.AperFunction,ComponentPad*%
%ADD13R,1.700000X1.700000*%
%TD*%
%TA.AperFunction,ComponentPad*%
%ADD14O,1.700000X1.700000*%
%TD*%
%TA.AperFunction,ViaPad*%
%ADD15C,0.800000*%
%TD*%
%TA.AperFunction,Conductor*%
%ADD16C,0.500000*%
%TD*%
G04 APERTURE END LIST*
D10*
%TO.P,SW1,1*%
%TO.N,GND*%
X80300000Y-60479000D03*
X80300000Y-51379000D03*
%TO.P,SW1,2*%
%TO.N,/OUT*%
X84800000Y-60479000D03*
X84800000Y-51379000D03*
%TD*%
D11*
%TO.P,R1,1*%
%TO.N,VCC*%
X81637500Y-62533000D03*
%TO.P,R1,2*%
%TO.N,/OUT*%
X83462500Y-62533000D03*
%TD*%
D12*
%TO.P,C1,1*%
%TO.N,/OUT*%
X83412500Y-49325000D03*
%TO.P,C1,2*%
%TO.N,GND*%
X81687500Y-49325000D03*
%TD*%
D13*
%TO.P,J2,1,Pin_1*%
%TO.N,VCC*%
X88900000Y-50800000D03*
D14*
%TO.P,J2,2,Pin_2*%
X88900000Y-53340000D03*
%TD*%
D13*
%TO.P,J3,1,Pin_1*%
%TO.N,GND*%
X76200000Y-58420000D03*
D14*
%TO.P,J3,2,Pin_2*%
X76200000Y-60960000D03*
%TD*%
D13*
%TO.P,J4,1,Pin_1*%
%TO.N,/OUT*%
X88900000Y-58420000D03*
D14*
%TO.P,J4,2,Pin_2*%
X88900000Y-60960000D03*
%TD*%
D13*
%TO.P,J1,1,Pin_1*%
%TO.N,GND*%
X76200000Y-50800000D03*
D14*
%TO.P,J1,2,Pin_2*%
X76200000Y-53340000D03*
%TD*%
D15*
%TO.N,GND*%
X87630000Y-55880000D03*
X88900000Y-55880000D03*
X86360000Y-62230000D03*
X86106000Y-49276000D03*
%TO.N,VCC*%
X82550000Y-60247000D03*
%TD*%
D16*
%TO.N,/OUT*%
X84377000Y-49325000D02*
X83412500Y-49325000D01*
X84800000Y-49748000D02*
X84377000Y-49325000D01*
X83462500Y-62533000D02*
X83462500Y-61816500D01*
X83462500Y-61816500D02*
X84800000Y-60479000D01*
X84800000Y-51379000D02*
X84800000Y-49748000D01*
X84800000Y-51379000D02*
X84800000Y-60479000D01*
X88900000Y-60960000D02*
X88900000Y-58420000D01*
X84800000Y-60479000D02*
X86859000Y-58420000D01*
X86859000Y-58420000D02*
X88900000Y-58420000D01*
%TO.N,GND*%
X76200000Y-50800000D02*
X76200000Y-53340000D01*
X76200000Y-58420000D02*
X76200000Y-60960000D01*
X80278000Y-51357000D02*
X80300000Y-51379000D01*
X76200000Y-53340000D02*
X76200000Y-58420000D01*
X81687500Y-49325000D02*
X80541000Y-49325000D01*
X80300000Y-49566000D02*
X80300000Y-51379000D01*
X80541000Y-49325000D02*
X80300000Y-49566000D01*
%TO.N,VCC*%
X81637500Y-62533000D02*
X81637500Y-61159500D01*
X81637500Y-61159500D02*
X82550000Y-60247000D01*
%TD*%
%TA.AperFunction,Conductor*%
%TO.N,GND*%
G36*
X76450000Y-60524498D02*
G01*
X76342315Y-60475320D01*
X76235763Y-60460000D01*
X76164237Y-60460000D01*
X76057685Y-60475320D01*
X75950000Y-60524498D01*
X75950000Y-58855501D01*
X76057685Y-58904680D01*
X76164237Y-58920000D01*
X76235763Y-58920000D01*
X76342315Y-58904680D01*
X76450000Y-58855501D01*
X76450000Y-60524498D01*
G37*
%TD.AperFunction*%
%TA.AperFunction,Conductor*%
G36*
X76450000Y-52904498D02*
G01*
X76342315Y-52855320D01*
X76235763Y-52840000D01*
X76164237Y-52840000D01*
X76057685Y-52855320D01*
X75950000Y-52904498D01*
X75950000Y-51235501D01*
X76057685Y-51284680D01*
X76164237Y-51300000D01*
X76235763Y-51300000D01*
X76342315Y-51284680D01*
X76450000Y-51235501D01*
X76450000Y-52904498D01*
G37*
%TD.AperFunction*%
%TA.AperFunction,Conductor*%
G36*
X80953249Y-48280185D02*
G01*
X80999004Y-48332989D01*
X81008948Y-48402147D01*
X80979923Y-48465703D01*
X80951308Y-48490038D01*
X80926962Y-48505054D01*
X80805055Y-48626961D01*
X80805052Y-48626965D01*
X80714551Y-48773688D01*
X80714546Y-48773699D01*
X80660319Y-48937347D01*
X80650000Y-49038345D01*
X80650000Y-49075000D01*
X81813500Y-49075000D01*
X81880539Y-49094685D01*
X81926294Y-49147489D01*
X81937500Y-49199000D01*
X81937500Y-50299999D01*
X82036640Y-50299999D01*
X82036654Y-50299998D01*
X82137652Y-50289680D01*
X82301300Y-50235453D01*
X82301311Y-50235448D01*
X82448035Y-50144947D01*
X82461960Y-50131021D01*
X82523282Y-50097533D01*
X82592973Y-50102514D01*
X82637327Y-50131017D01*
X82651650Y-50145340D01*
X82798484Y-50235908D01*
X82962247Y-50290174D01*
X83063323Y-50300500D01*
X83475500Y-50300499D01*
X83542539Y-50320183D01*
X83588294Y-50372987D01*
X83599500Y-50424499D01*
X83599500Y-52476870D01*
X83599501Y-52476876D01*
X83605908Y-52536483D01*
X83656202Y-52671328D01*
X83656206Y-52671335D01*
X83742452Y-52786544D01*
X83742455Y-52786547D01*
X83857664Y-52872793D01*
X83857673Y-52872798D01*
X83968832Y-52914257D01*
X84024766Y-52956127D01*
X84049184Y-53021592D01*
X84049500Y-53030439D01*
X84049500Y-58827560D01*
X84029815Y-58894599D01*
X83977011Y-58940354D01*
X83968833Y-58943742D01*
X83857671Y-58985202D01*
X83857664Y-58985206D01*
X83742455Y-59071452D01*
X83742452Y-59071455D01*
X83656206Y-59186664D01*
X83656202Y-59186671D01*
X83605908Y-59321517D01*
X83599501Y-59381116D01*
X83599500Y-59381135D01*
X83599500Y-59801013D01*
X83579815Y-59868052D01*
X83527011Y-59913807D01*
X83457853Y-59923751D01*
X83394297Y-59894726D01*
X83368113Y-59863013D01*
X83332317Y-59801013D01*
X83282533Y-59714784D01*
X83155871Y-59574112D01*
X83155870Y-59574111D01*
X83002734Y-59462851D01*
X83002729Y-59462848D01*
X82829807Y-59385857D01*
X82829802Y-59385855D01*
X82684001Y-59354865D01*
X82644646Y-59346500D01*
X82455354Y-59346500D01*
X82422897Y-59353398D01*
X82270197Y-59385855D01*
X82270192Y-59385857D01*
X82097270Y-59462848D01*
X82097265Y-59462851D01*
X81944129Y-59574111D01*
X81817466Y-59714785D01*
X81731387Y-59863879D01*
X81680820Y-59912094D01*
X81612213Y-59925318D01*
X81547348Y-59899350D01*
X81506820Y-59842436D01*
X81500000Y-59801879D01*
X81500000Y-59381172D01*
X81499999Y-59381155D01*
X81493598Y-59321627D01*
X81493596Y-59321620D01*
X81443354Y-59186913D01*
X81443350Y-59186906D01*
X81357190Y-59071812D01*
X81357187Y-59071809D01*
X81242093Y-58985649D01*
X81242086Y-58985645D01*
X81107379Y-58935403D01*
X81107372Y-58935401D01*
X81047844Y-58929000D01*
X80550000Y-58929000D01*
X80550000Y-62029000D01*
X80556489Y-62035489D01*
X80601427Y-62048685D01*
X80647182Y-62101489D01*
X80657746Y-62165602D01*
X80649500Y-62246313D01*
X80649500Y-62819669D01*
X80649501Y-62819687D01*
X80659825Y-62920752D01*
X80714092Y-63084515D01*
X80714093Y-63084518D01*
X80804661Y-63231351D01*
X80861129Y-63287819D01*
X80894614Y-63349142D01*
X80889630Y-63418834D01*
X80847758Y-63474767D01*
X80782294Y-63499184D01*
X80773448Y-63499500D01*
X74546500Y-63499500D01*
X74479461Y-63479815D01*
X74433706Y-63427011D01*
X74422500Y-63375500D01*
X74422500Y-59317844D01*
X74850000Y-59317844D01*
X74856401Y-59377372D01*
X74856403Y-59377379D01*
X74906645Y-59512086D01*
X74906649Y-59512093D01*
X74992809Y-59627187D01*
X74992812Y-59627190D01*
X75107906Y-59713350D01*
X75107913Y-59713354D01*
X75239986Y-59762614D01*
X75295920Y-59804485D01*
X75320337Y-59869949D01*
X75305486Y-59938222D01*
X75284335Y-59966477D01*
X75161886Y-60088926D01*
X75026400Y-60282420D01*
X75026399Y-60282422D01*
X74926570Y-60496507D01*
X74926567Y-60496513D01*
X74869364Y-60709999D01*
X74869364Y-60710000D01*
X75766314Y-60710000D01*
X75740507Y-60750156D01*
X75700000Y-60888111D01*
X75700000Y-61031889D01*
X75740507Y-61169844D01*
X75766314Y-61210000D01*
X74869364Y-61210000D01*
X74926567Y-61423486D01*
X74926570Y-61423492D01*
X75026399Y-61637578D01*
X75161894Y-61831082D01*
X75328917Y-61998105D01*
X75522421Y-62133600D01*
X75736507Y-62233429D01*
X75736516Y-62233433D01*
X75950000Y-62290634D01*
X75950000Y-61395501D01*
X76057685Y-61444680D01*
X76164237Y-61460000D01*
X76235763Y-61460000D01*
X76342315Y-61444680D01*
X76450000Y-61395501D01*
X76450000Y-62290633D01*
X76663483Y-62233433D01*
X76663492Y-62233429D01*
X76877578Y-62133600D01*
X77071082Y-61998105D01*
X77238105Y-61831082D01*
X77373600Y-61637578D01*
X77473429Y-61423492D01*
X77473432Y-61423486D01*
X77530636Y-61210000D01*
X76633686Y-61210000D01*
X76659493Y-61169844D01*
X76700000Y-61031889D01*
X76700000Y-60888111D01*
X76659493Y-60750156D01*
X76645897Y-60729000D01*
X79100000Y-60729000D01*
X79100000Y-61576844D01*
X79106401Y-61636372D01*
X79106403Y-61636379D01*
X79156645Y-61771086D01*
X79156649Y-61771093D01*
X79242809Y-61886187D01*
X79242812Y-61886190D01*
X79357906Y-61972350D01*
X79357913Y-61972354D01*
X79492620Y-62022596D01*
X79492627Y-62022598D01*
X79552155Y-62028999D01*
X79552172Y-62029000D01*
X80050000Y-62029000D01*
X80050000Y-60729000D01*
X79100000Y-60729000D01*
X76645897Y-60729000D01*
X76633686Y-60710000D01*
X77530636Y-60710000D01*
X77530635Y-60709999D01*
X77473432Y-60496513D01*
X77473429Y-60496507D01*
X77373600Y-60282422D01*
X77373599Y-60282420D01*
X77336194Y-60229000D01*
X79100000Y-60229000D01*
X80050000Y-60229000D01*
X80050000Y-58929000D01*
X79552155Y-58929000D01*
X79492627Y-58935401D01*
X79492620Y-58935403D01*
X79357913Y-58985645D01*
X79357906Y-58985649D01*
X79242812Y-59071809D01*
X79242809Y-59071812D01*
X79156649Y-59186906D01*
X79156645Y-59186913D01*
X79106403Y-59321620D01*
X79106401Y-59321627D01*
X79100000Y-59381155D01*
X79100000Y-60229000D01*
X77336194Y-60229000D01*
X77238113Y-60088926D01*
X77238108Y-60088920D01*
X77115665Y-59966477D01*
X77082180Y-59905154D01*
X77087164Y-59835462D01*
X77129036Y-59779529D01*
X77160013Y-59762614D01*
X77292086Y-59713354D01*
X77292093Y-59713350D01*
X77407187Y-59627190D01*
X77407190Y-59627187D01*
X77493350Y-59512093D01*
X77493354Y-59512086D01*
X77543596Y-59377379D01*
X77543598Y-59377372D01*
X77549999Y-59317844D01*
X77550000Y-59317827D01*
X77550000Y-58670000D01*
X76633686Y-58670000D01*
X76659493Y-58629844D01*
X76700000Y-58491889D01*
X76700000Y-58348111D01*
X76659493Y-58210156D01*
X76633686Y-58170000D01*
X77550000Y-58170000D01*
X77550000Y-57522172D01*
X77549999Y-57522155D01*
X77543598Y-57462627D01*
X77543596Y-57462620D01*
X77493354Y-57327913D01*
X77493350Y-57327906D01*
X77407190Y-57212812D01*
X77407187Y-57212809D01*
X77292093Y-57126649D01*
X77292086Y-57126645D01*
X77157379Y-57076403D01*
X77157372Y-57076401D01*
X77097844Y-57070000D01*
X76450000Y-57070000D01*
X76450000Y-57984498D01*
X76342315Y-57935320D01*
X76235763Y-57920000D01*
X76164237Y-57920000D01*
X76057685Y-57935320D01*
X75950000Y-57984498D01*
X75950000Y-57070000D01*
X75302155Y-57070000D01*
X75242627Y-57076401D01*
X75242620Y-57076403D01*
X75107913Y-57126645D01*
X75107906Y-57126649D01*
X74992812Y-57212809D01*
X74992809Y-57212812D01*
X74906649Y-57327906D01*
X74906645Y-57327913D01*
X74856403Y-57462620D01*
X74856401Y-57462627D01*
X74850000Y-57522155D01*
X74850000Y-58170000D01*
X75766314Y-58170000D01*
X75740507Y-58210156D01*
X75700000Y-58348111D01*
X75700000Y-58491889D01*
X75740507Y-58629844D01*
X75766314Y-58670000D01*
X74850000Y-58670000D01*
X74850000Y-59317844D01*
X74422500Y-59317844D01*
X74422500Y-51697844D01*
X74850000Y-51697844D01*
X74856401Y-51757372D01*
X74856403Y-51757379D01*
X74906645Y-51892086D01*
X74906649Y-51892093D01*
X74992809Y-52007187D01*
X74992812Y-52007190D01*
X75107906Y-52093350D01*
X75107913Y-52093354D01*
X75239986Y-52142614D01*
X75295920Y-52184485D01*
X75320337Y-52249949D01*
X75305486Y-52318222D01*
X75284335Y-52346477D01*
X75161886Y-52468926D01*
X75026400Y-52662420D01*
X75026399Y-52662422D01*
X74926570Y-52876507D01*
X74926567Y-52876513D01*
X74869364Y-53089999D01*
X74869364Y-53090000D01*
X75766314Y-53090000D01*
X75740507Y-53130156D01*
X75700000Y-53268111D01*
X75700000Y-53411889D01*
X75740507Y-53549844D01*
X75766314Y-53590000D01*
X74869364Y-53590000D01*
X74926567Y-53803486D01*
X74926570Y-53803492D01*
X75026399Y-54017578D01*
X75161894Y-54211082D01*
X75328917Y-54378105D01*
X75522421Y-54513600D01*
X75736507Y-54613429D01*
X75736516Y-54613433D01*
X75950000Y-54670634D01*
X75950000Y-53775501D01*
X76057685Y-53824680D01*
X76164237Y-53840000D01*
X76235763Y-53840000D01*
X76342315Y-53824680D01*
X76450000Y-53775501D01*
X76450000Y-54670633D01*
X76663483Y-54613433D01*
X76663492Y-54613429D01*
X76877578Y-54513600D01*
X77071082Y-54378105D01*
X77238105Y-54211082D01*
X77373600Y-54017578D01*
X77473429Y-53803492D01*
X77473432Y-53803486D01*
X77530636Y-53590000D01*
X76633686Y-53590000D01*
X76659493Y-53549844D01*
X76700000Y-53411889D01*
X76700000Y-53268111D01*
X76659493Y-53130156D01*
X76633686Y-53090000D01*
X77530636Y-53090000D01*
X77530635Y-53089999D01*
X77473432Y-52876513D01*
X77473429Y-52876507D01*
X77373600Y-52662422D01*
X77373599Y-52662420D01*
X77238113Y-52468926D01*
X77238108Y-52468920D01*
X77115665Y-52346477D01*
X77082180Y-52285154D01*
X77087164Y-52215462D01*
X77129036Y-52159529D01*
X77160013Y-52142614D01*
X77292086Y-52093354D01*
X77292093Y-52093350D01*
X77407187Y-52007190D01*
X77407190Y-52007187D01*
X77493350Y-51892093D01*
X77493354Y-51892086D01*
X77543596Y-51757379D01*
X77543598Y-51757372D01*
X77549999Y-51697844D01*
X77550000Y-51697827D01*
X77550000Y-51629000D01*
X79100000Y-51629000D01*
X79100000Y-52476844D01*
X79106401Y-52536372D01*
X79106403Y-52536379D01*
X79156645Y-52671086D01*
X79156649Y-52671093D01*
X79242809Y-52786187D01*
X79242812Y-52786190D01*
X79357906Y-52872350D01*
X79357913Y-52872354D01*
X79492620Y-52922596D01*
X79492627Y-52922598D01*
X79552155Y-52928999D01*
X79552172Y-52929000D01*
X80050000Y-52929000D01*
X80050000Y-51629000D01*
X80550000Y-51629000D01*
X80550000Y-52929000D01*
X81047828Y-52929000D01*
X81047844Y-52928999D01*
X81107372Y-52922598D01*
X81107379Y-52922596D01*
X81242086Y-52872354D01*
X81242093Y-52872350D01*
X81357187Y-52786190D01*
X81357190Y-52786187D01*
X81443350Y-52671093D01*
X81443354Y-52671086D01*
X81493596Y-52536379D01*
X81493598Y-52536372D01*
X81499999Y-52476844D01*
X81500000Y-52476827D01*
X81500000Y-51629000D01*
X80550000Y-51629000D01*
X80050000Y-51629000D01*
X79100000Y-51629000D01*
X77550000Y-51629000D01*
X77550000Y-51129000D01*
X79100000Y-51129000D01*
X80050000Y-51129000D01*
X80550000Y-51129000D01*
X81500000Y-51129000D01*
X81500000Y-50340000D01*
X81473819Y-50313819D01*
X81440334Y-50252496D01*
X81437500Y-50226138D01*
X81437500Y-49575000D01*
X80650001Y-49575000D01*
X80650001Y-49611654D01*
X80658250Y-49692398D01*
X80645480Y-49761091D01*
X80597600Y-49811976D01*
X80555629Y-49823370D01*
X80550000Y-49829000D01*
X80550000Y-51129000D01*
X80050000Y-51129000D01*
X80050000Y-49829000D01*
X79552155Y-49829000D01*
X79492627Y-49835401D01*
X79492620Y-49835403D01*
X79357913Y-49885645D01*
X79357906Y-49885649D01*
X79242812Y-49971809D01*
X79242809Y-49971812D01*
X79156649Y-50086906D01*
X79156645Y-50086913D01*
X79106403Y-50221620D01*
X79106401Y-50221627D01*
X79100000Y-50281155D01*
X79100000Y-51129000D01*
X77550000Y-51129000D01*
X77550000Y-51050000D01*
X76633686Y-51050000D01*
X76659493Y-51009844D01*
X76700000Y-50871889D01*
X76700000Y-50728111D01*
X76659493Y-50590156D01*
X76633686Y-50550000D01*
X77550000Y-50550000D01*
X77550000Y-49902172D01*
X77549999Y-49902155D01*
X77543598Y-49842627D01*
X77543596Y-49842620D01*
X77493354Y-49707913D01*
X77493350Y-49707906D01*
X77407190Y-49592812D01*
X77407187Y-49592809D01*
X77292093Y-49506649D01*
X77292086Y-49506645D01*
X77157379Y-49456403D01*
X77157372Y-49456401D01*
X77097844Y-49450000D01*
X76450000Y-49450000D01*
X76450000Y-50364498D01*
X76342315Y-50315320D01*
X76235763Y-50300000D01*
X76164237Y-50300000D01*
X76057685Y-50315320D01*
X75950000Y-50364498D01*
X75950000Y-49450000D01*
X75302155Y-49450000D01*
X75242627Y-49456401D01*
X75242620Y-49456403D01*
X75107913Y-49506645D01*
X75107906Y-49506649D01*
X74992812Y-49592809D01*
X74992809Y-49592812D01*
X74906649Y-49707906D01*
X74906645Y-49707913D01*
X74856403Y-49842620D01*
X74856401Y-49842627D01*
X74850000Y-49902155D01*
X74850000Y-50550000D01*
X75766314Y-50550000D01*
X75740507Y-50590156D01*
X75700000Y-50728111D01*
X75700000Y-50871889D01*
X75740507Y-51009844D01*
X75766314Y-51050000D01*
X74850000Y-51050000D01*
X74850000Y-51697844D01*
X74422500Y-51697844D01*
X74422500Y-48384500D01*
X74442185Y-48317461D01*
X74494989Y-48271706D01*
X74546500Y-48260500D01*
X80886210Y-48260500D01*
X80953249Y-48280185D01*
G37*
%TD.AperFunction*%
%TA.AperFunction,Conductor*%
G36*
X90620539Y-48280185D02*
G01*
X90666294Y-48332989D01*
X90677500Y-48384500D01*
X90677500Y-63375500D01*
X90657815Y-63442539D01*
X90605011Y-63488294D01*
X90553500Y-63499500D01*
X84326552Y-63499500D01*
X84259513Y-63479815D01*
X84213758Y-63427011D01*
X84203814Y-63357853D01*
X84232839Y-63294297D01*
X84238871Y-63287819D01*
X84295340Y-63231350D01*
X84385908Y-63084516D01*
X84440174Y-62920753D01*
X84450500Y-62819677D01*
X84450499Y-62246324D01*
X84442304Y-62166100D01*
X84455074Y-62097408D01*
X84502954Y-62046523D01*
X84565662Y-62029499D01*
X85547871Y-62029499D01*
X85547872Y-62029499D01*
X85607483Y-62023091D01*
X85742331Y-61972796D01*
X85857546Y-61886546D01*
X85943796Y-61771331D01*
X85994091Y-61636483D01*
X86000500Y-61576873D01*
X86000499Y-60391228D01*
X86020184Y-60324190D01*
X86036813Y-60303553D01*
X87133549Y-59206819D01*
X87194872Y-59173334D01*
X87221230Y-59170500D01*
X87425501Y-59170500D01*
X87492540Y-59190185D01*
X87538295Y-59242989D01*
X87549501Y-59294500D01*
X87549501Y-59317876D01*
X87555908Y-59377483D01*
X87606202Y-59512328D01*
X87606206Y-59512335D01*
X87692452Y-59627544D01*
X87692455Y-59627547D01*
X87807664Y-59713793D01*
X87807671Y-59713797D01*
X87939082Y-59762810D01*
X87995016Y-59804681D01*
X88019433Y-59870145D01*
X88004582Y-59938418D01*
X87983430Y-59966673D01*
X87861505Y-60088597D01*
X87725965Y-60282169D01*
X87725964Y-60282171D01*
X87626098Y-60496335D01*
X87626094Y-60496344D01*
X87564938Y-60724586D01*
X87564936Y-60724596D01*
X87544341Y-60959999D01*
X87544341Y-60960000D01*
X87564936Y-61195403D01*
X87564938Y-61195413D01*
X87626094Y-61423655D01*
X87626096Y-61423659D01*
X87626097Y-61423663D01*
X87725285Y-61636372D01*
X87725965Y-61637830D01*
X87725967Y-61637834D01*
X87789648Y-61728779D01*
X87861505Y-61831401D01*
X88028599Y-61998495D01*
X88081432Y-62035489D01*
X88222165Y-62134032D01*
X88222167Y-62134033D01*
X88222170Y-62134035D01*
X88436337Y-62233903D01*
X88664592Y-62295063D01*
X88852918Y-62311539D01*
X88899999Y-62315659D01*
X88900000Y-62315659D01*
X88900001Y-62315659D01*
X88939234Y-62312226D01*
X89135408Y-62295063D01*
X89363663Y-62233903D01*
X89577830Y-62134035D01*
X89771401Y-61998495D01*
X89938495Y-61831401D01*
X90074035Y-61637830D01*
X90173903Y-61423663D01*
X90235063Y-61195408D01*
X90255659Y-60960000D01*
X90235063Y-60724592D01*
X90173903Y-60496337D01*
X90074035Y-60282171D01*
X90036804Y-60229000D01*
X89938496Y-60088600D01*
X89908640Y-60058744D01*
X89816567Y-59966671D01*
X89783084Y-59905351D01*
X89788068Y-59835659D01*
X89829939Y-59779725D01*
X89860915Y-59762810D01*
X89992331Y-59713796D01*
X90107546Y-59627546D01*
X90193796Y-59512331D01*
X90244091Y-59377483D01*
X90250500Y-59317873D01*
X90250499Y-57522128D01*
X90244091Y-57462517D01*
X90193884Y-57327906D01*
X90193797Y-57327671D01*
X90193793Y-57327664D01*
X90107547Y-57212455D01*
X90107544Y-57212452D01*
X89992335Y-57126206D01*
X89992328Y-57126202D01*
X89857482Y-57075908D01*
X89857483Y-57075908D01*
X89797883Y-57069501D01*
X89797881Y-57069500D01*
X89797873Y-57069500D01*
X89797864Y-57069500D01*
X88002129Y-57069500D01*
X88002123Y-57069501D01*
X87942516Y-57075908D01*
X87807671Y-57126202D01*
X87807664Y-57126206D01*
X87692455Y-57212452D01*
X87692452Y-57212455D01*
X87606206Y-57327664D01*
X87606202Y-57327671D01*
X87555908Y-57462517D01*
X87549501Y-57522116D01*
X87549501Y-57522123D01*
X87549500Y-57522135D01*
X87549500Y-57545500D01*
X87529815Y-57612539D01*
X87477011Y-57658294D01*
X87425500Y-57669500D01*
X86922705Y-57669500D01*
X86904735Y-57668191D01*
X86880972Y-57664710D01*
X86835533Y-57668686D01*
X86828931Y-57669264D01*
X86823530Y-57669500D01*
X86815289Y-57669500D01*
X86793579Y-57672037D01*
X86782724Y-57673306D01*
X86767419Y-57674645D01*
X86706199Y-57680001D01*
X86699132Y-57681460D01*
X86699120Y-57681404D01*
X86691763Y-57683035D01*
X86691777Y-57683092D01*
X86684743Y-57684759D01*
X86612575Y-57711025D01*
X86539675Y-57735181D01*
X86533126Y-57738236D01*
X86533101Y-57738183D01*
X86526308Y-57741471D01*
X86526334Y-57741523D01*
X86519880Y-57744764D01*
X86455708Y-57786971D01*
X86390347Y-57827285D01*
X86384683Y-57831765D01*
X86384647Y-57831719D01*
X86378798Y-57836484D01*
X86378835Y-57836528D01*
X86373310Y-57841164D01*
X86320597Y-57897035D01*
X85762181Y-58455451D01*
X85700858Y-58488936D01*
X85631166Y-58483952D01*
X85575233Y-58442080D01*
X85550816Y-58376616D01*
X85550500Y-58367770D01*
X85550500Y-53340000D01*
X87544341Y-53340000D01*
X87564936Y-53575403D01*
X87564938Y-53575413D01*
X87626094Y-53803655D01*
X87626096Y-53803659D01*
X87626097Y-53803663D01*
X87725847Y-54017578D01*
X87725965Y-54017830D01*
X87725967Y-54017834D01*
X87834281Y-54172521D01*
X87861505Y-54211401D01*
X88028599Y-54378495D01*
X88125384Y-54446265D01*
X88222165Y-54514032D01*
X88222167Y-54514033D01*
X88222170Y-54514035D01*
X88436337Y-54613903D01*
X88664592Y-54675063D01*
X88852918Y-54691539D01*
X88899999Y-54695659D01*
X88900000Y-54695659D01*
X88900001Y-54695659D01*
X88939234Y-54692226D01*
X89135408Y-54675063D01*
X89363663Y-54613903D01*
X89577830Y-54514035D01*
X89771401Y-54378495D01*
X89938495Y-54211401D01*
X90074035Y-54017830D01*
X90173903Y-53803663D01*
X90235063Y-53575408D01*
X90255659Y-53340000D01*
X90235063Y-53104592D01*
X90173903Y-52876337D01*
X90074035Y-52662171D01*
X89944295Y-52476883D01*
X89938496Y-52468600D01*
X89938495Y-52468599D01*
X89816567Y-52346671D01*
X89783084Y-52285351D01*
X89788068Y-52215659D01*
X89829939Y-52159725D01*
X89860915Y-52142810D01*
X89992331Y-52093796D01*
X90107546Y-52007546D01*
X90193796Y-51892331D01*
X90244091Y-51757483D01*
X90250500Y-51697873D01*
X90250499Y-49902128D01*
X90244091Y-49842517D01*
X90241253Y-49834909D01*
X90193797Y-49707671D01*
X90193793Y-49707664D01*
X90107547Y-49592455D01*
X90107544Y-49592452D01*
X89992335Y-49506206D01*
X89992328Y-49506202D01*
X89857482Y-49455908D01*
X89857483Y-49455908D01*
X89797883Y-49449501D01*
X89797881Y-49449500D01*
X89797873Y-49449500D01*
X89797864Y-49449500D01*
X88002129Y-49449500D01*
X88002123Y-49449501D01*
X87942516Y-49455908D01*
X87807671Y-49506202D01*
X87807664Y-49506206D01*
X87692455Y-49592452D01*
X87692452Y-49592455D01*
X87606206Y-49707664D01*
X87606202Y-49707671D01*
X87555908Y-49842517D01*
X87549501Y-49902116D01*
X87549501Y-49902123D01*
X87549500Y-49902135D01*
X87549500Y-51697870D01*
X87549501Y-51697876D01*
X87555908Y-51757483D01*
X87606202Y-51892328D01*
X87606206Y-51892335D01*
X87692452Y-52007544D01*
X87692455Y-52007547D01*
X87807664Y-52093793D01*
X87807671Y-52093797D01*
X87939081Y-52142810D01*
X87995015Y-52184681D01*
X88019432Y-52250145D01*
X88004580Y-52318418D01*
X87983430Y-52346673D01*
X87861503Y-52468600D01*
X87725965Y-52662169D01*
X87725964Y-52662171D01*
X87626098Y-52876335D01*
X87626094Y-52876344D01*
X87564938Y-53104586D01*
X87564936Y-53104596D01*
X87544341Y-53339999D01*
X87544341Y-53340000D01*
X85550500Y-53340000D01*
X85550500Y-53030439D01*
X85570185Y-52963400D01*
X85622989Y-52917645D01*
X85631168Y-52914257D01*
X85742326Y-52872798D01*
X85742326Y-52872797D01*
X85742331Y-52872796D01*
X85857546Y-52786546D01*
X85943796Y-52671331D01*
X85994091Y-52536483D01*
X86000500Y-52476873D01*
X86000499Y-50281128D01*
X85994091Y-50221517D01*
X85965532Y-50144947D01*
X85943797Y-50086671D01*
X85943793Y-50086664D01*
X85857547Y-49971455D01*
X85857544Y-49971452D01*
X85742335Y-49885206D01*
X85742328Y-49885202D01*
X85632771Y-49844340D01*
X85576837Y-49802469D01*
X85552576Y-49738966D01*
X85550736Y-49717939D01*
X85550500Y-49712532D01*
X85550500Y-49704297D01*
X85550500Y-49704291D01*
X85546691Y-49671707D01*
X85539998Y-49595202D01*
X85539996Y-49595197D01*
X85538538Y-49588133D01*
X85538597Y-49588120D01*
X85536967Y-49580764D01*
X85536908Y-49580779D01*
X85535242Y-49573753D01*
X85535241Y-49573745D01*
X85508973Y-49501573D01*
X85484815Y-49428666D01*
X85481763Y-49422121D01*
X85481817Y-49422095D01*
X85478533Y-49415312D01*
X85478480Y-49415340D01*
X85475238Y-49408886D01*
X85475237Y-49408883D01*
X85433038Y-49344723D01*
X85392712Y-49279344D01*
X85392711Y-49279343D01*
X85392710Y-49279341D01*
X85388234Y-49273681D01*
X85388280Y-49273643D01*
X85383519Y-49267799D01*
X85383474Y-49267838D01*
X85378834Y-49262308D01*
X85322982Y-49209613D01*
X84952729Y-48839361D01*
X84940949Y-48825730D01*
X84933482Y-48815701D01*
X84926612Y-48806472D01*
X84887555Y-48773699D01*
X84886587Y-48772886D01*
X84882612Y-48769244D01*
X84879690Y-48766322D01*
X84876780Y-48763411D01*
X84851040Y-48743059D01*
X84792209Y-48693694D01*
X84786180Y-48689729D01*
X84786212Y-48689680D01*
X84779853Y-48685628D01*
X84779822Y-48685679D01*
X84773680Y-48681891D01*
X84773678Y-48681890D01*
X84773677Y-48681889D01*
X84734474Y-48663608D01*
X84704058Y-48649424D01*
X84658710Y-48626650D01*
X84635433Y-48614960D01*
X84635431Y-48614959D01*
X84635430Y-48614959D01*
X84628645Y-48612489D01*
X84628665Y-48612433D01*
X84621549Y-48609959D01*
X84621531Y-48610015D01*
X84614671Y-48607742D01*
X84586841Y-48601996D01*
X84539434Y-48592207D01*
X84490472Y-48580603D01*
X84464719Y-48574499D01*
X84457547Y-48573661D01*
X84457553Y-48573601D01*
X84450055Y-48572835D01*
X84450050Y-48572895D01*
X84442860Y-48572265D01*
X84366083Y-48574500D01*
X84294552Y-48574500D01*
X84227513Y-48554815D01*
X84206871Y-48538181D01*
X84173350Y-48504660D01*
X84173346Y-48504657D01*
X84149645Y-48490038D01*
X84102920Y-48438090D01*
X84091699Y-48369128D01*
X84119542Y-48305046D01*
X84177611Y-48266190D01*
X84214742Y-48260500D01*
X90553500Y-48260500D01*
X90620539Y-48280185D01*
G37*
%TD.AperFunction*%
%TD*%
M02*
