%TF.GenerationSoftware,KiCad,Pcbnew,7.0.9*%
%TF.CreationDate,2023-11-30T13:54:46-08:00*%
%TF.ProjectId,Button-Board,42757474-6f6e-42d4-926f-6172642e6b69,rev?*%
%TF.SameCoordinates,Original*%
%TF.FileFunction,Legend,Top*%
%TF.FilePolarity,Positive*%
%FSLAX46Y46*%
G04 Gerber Fmt 4.6, Leading zero omitted, Abs format (unit mm)*
G04 Created by KiCad (PCBNEW 7.0.9) date 2023-11-30 13:54:46*
%MOMM*%
%LPD*%
G01*
G04 APERTURE LIST*
G04 Aperture macros list*
%AMRoundRect*
0 Rectangle with rounded corners*
0 $1 Rounding radius*
0 $2 $3 $4 $5 $6 $7 $8 $9 X,Y pos of 4 corners*
0 Add a 4 corners polygon primitive as box body*
4,1,4,$2,$3,$4,$5,$6,$7,$8,$9,$2,$3,0*
0 Add four circle primitives for the rounded corners*
1,1,$1+$1,$2,$3*
1,1,$1+$1,$4,$5*
1,1,$1+$1,$6,$7*
1,1,$1+$1,$8,$9*
0 Add four rect primitives between the rounded corners*
20,1,$1+$1,$2,$3,$4,$5,0*
20,1,$1+$1,$4,$5,$6,$7,0*
20,1,$1+$1,$6,$7,$8,$9,0*
20,1,$1+$1,$8,$9,$2,$3,0*%
G04 Aperture macros list end*
%ADD10C,0.150000*%
%ADD11C,0.120000*%
%ADD12R,1.400000X2.100000*%
%ADD13RoundRect,0.237500X-0.250000X-0.237500X0.250000X-0.237500X0.250000X0.237500X-0.250000X0.237500X0*%
%ADD14RoundRect,0.237500X0.300000X0.237500X-0.300000X0.237500X-0.300000X-0.237500X0.300000X-0.237500X0*%
%ADD15R,1.700000X1.700000*%
%ADD16O,1.700000X1.700000*%
G04 APERTURE END LIST*
D10*
X87490180Y-50993922D02*
X86490180Y-51327255D01*
X86490180Y-51327255D02*
X87490180Y-51660588D01*
X86585419Y-52565350D02*
X86537800Y-52517731D01*
X86537800Y-52517731D02*
X86490180Y-52374874D01*
X86490180Y-52374874D02*
X86490180Y-52279636D01*
X86490180Y-52279636D02*
X86537800Y-52136779D01*
X86537800Y-52136779D02*
X86633038Y-52041541D01*
X86633038Y-52041541D02*
X86728276Y-51993922D01*
X86728276Y-51993922D02*
X86918752Y-51946303D01*
X86918752Y-51946303D02*
X87061609Y-51946303D01*
X87061609Y-51946303D02*
X87252085Y-51993922D01*
X87252085Y-51993922D02*
X87347323Y-52041541D01*
X87347323Y-52041541D02*
X87442561Y-52136779D01*
X87442561Y-52136779D02*
X87490180Y-52279636D01*
X87490180Y-52279636D02*
X87490180Y-52374874D01*
X87490180Y-52374874D02*
X87442561Y-52517731D01*
X87442561Y-52517731D02*
X87394942Y-52565350D01*
X86585419Y-53565350D02*
X86537800Y-53517731D01*
X86537800Y-53517731D02*
X86490180Y-53374874D01*
X86490180Y-53374874D02*
X86490180Y-53279636D01*
X86490180Y-53279636D02*
X86537800Y-53136779D01*
X86537800Y-53136779D02*
X86633038Y-53041541D01*
X86633038Y-53041541D02*
X86728276Y-52993922D01*
X86728276Y-52993922D02*
X86918752Y-52946303D01*
X86918752Y-52946303D02*
X87061609Y-52946303D01*
X87061609Y-52946303D02*
X87252085Y-52993922D01*
X87252085Y-52993922D02*
X87347323Y-53041541D01*
X87347323Y-53041541D02*
X87442561Y-53136779D01*
X87442561Y-53136779D02*
X87490180Y-53279636D01*
X87490180Y-53279636D02*
X87490180Y-53374874D01*
X87490180Y-53374874D02*
X87442561Y-53517731D01*
X87442561Y-53517731D02*
X87394942Y-53565350D01*
X87013990Y-58836112D02*
X86966371Y-58978969D01*
X86966371Y-58978969D02*
X86918752Y-59026588D01*
X86918752Y-59026588D02*
X86823514Y-59074207D01*
X86823514Y-59074207D02*
X86680657Y-59074207D01*
X86680657Y-59074207D02*
X86585419Y-59026588D01*
X86585419Y-59026588D02*
X86537800Y-58978969D01*
X86537800Y-58978969D02*
X86490180Y-58883731D01*
X86490180Y-58883731D02*
X86490180Y-58502779D01*
X86490180Y-58502779D02*
X87490180Y-58502779D01*
X87490180Y-58502779D02*
X87490180Y-58836112D01*
X87490180Y-58836112D02*
X87442561Y-58931350D01*
X87442561Y-58931350D02*
X87394942Y-58978969D01*
X87394942Y-58978969D02*
X87299704Y-59026588D01*
X87299704Y-59026588D02*
X87204466Y-59026588D01*
X87204466Y-59026588D02*
X87109228Y-58978969D01*
X87109228Y-58978969D02*
X87061609Y-58931350D01*
X87061609Y-58931350D02*
X87013990Y-58836112D01*
X87013990Y-58836112D02*
X87013990Y-58502779D01*
X87490180Y-59359922D02*
X87490180Y-59931350D01*
X86490180Y-59645636D02*
X87490180Y-59645636D01*
X86490180Y-60264684D02*
X87490180Y-60264684D01*
X87490180Y-60264684D02*
X86490180Y-60836112D01*
X86490180Y-60836112D02*
X87490180Y-60836112D01*
X78552561Y-51406588D02*
X78600180Y-51311350D01*
X78600180Y-51311350D02*
X78600180Y-51168493D01*
X78600180Y-51168493D02*
X78552561Y-51025636D01*
X78552561Y-51025636D02*
X78457323Y-50930398D01*
X78457323Y-50930398D02*
X78362085Y-50882779D01*
X78362085Y-50882779D02*
X78171609Y-50835160D01*
X78171609Y-50835160D02*
X78028752Y-50835160D01*
X78028752Y-50835160D02*
X77838276Y-50882779D01*
X77838276Y-50882779D02*
X77743038Y-50930398D01*
X77743038Y-50930398D02*
X77647800Y-51025636D01*
X77647800Y-51025636D02*
X77600180Y-51168493D01*
X77600180Y-51168493D02*
X77600180Y-51263731D01*
X77600180Y-51263731D02*
X77647800Y-51406588D01*
X77647800Y-51406588D02*
X77695419Y-51454207D01*
X77695419Y-51454207D02*
X78028752Y-51454207D01*
X78028752Y-51454207D02*
X78028752Y-51263731D01*
X77600180Y-51882779D02*
X78600180Y-51882779D01*
X78600180Y-51882779D02*
X77600180Y-52454207D01*
X77600180Y-52454207D02*
X78600180Y-52454207D01*
X77600180Y-52930398D02*
X78600180Y-52930398D01*
X78600180Y-52930398D02*
X78600180Y-53168493D01*
X78600180Y-53168493D02*
X78552561Y-53311350D01*
X78552561Y-53311350D02*
X78457323Y-53406588D01*
X78457323Y-53406588D02*
X78362085Y-53454207D01*
X78362085Y-53454207D02*
X78171609Y-53501826D01*
X78171609Y-53501826D02*
X78028752Y-53501826D01*
X78028752Y-53501826D02*
X77838276Y-53454207D01*
X77838276Y-53454207D02*
X77743038Y-53406588D01*
X77743038Y-53406588D02*
X77647800Y-53311350D01*
X77647800Y-53311350D02*
X77600180Y-53168493D01*
X77600180Y-53168493D02*
X77600180Y-52930398D01*
X78552561Y-59026588D02*
X78600180Y-58931350D01*
X78600180Y-58931350D02*
X78600180Y-58788493D01*
X78600180Y-58788493D02*
X78552561Y-58645636D01*
X78552561Y-58645636D02*
X78457323Y-58550398D01*
X78457323Y-58550398D02*
X78362085Y-58502779D01*
X78362085Y-58502779D02*
X78171609Y-58455160D01*
X78171609Y-58455160D02*
X78028752Y-58455160D01*
X78028752Y-58455160D02*
X77838276Y-58502779D01*
X77838276Y-58502779D02*
X77743038Y-58550398D01*
X77743038Y-58550398D02*
X77647800Y-58645636D01*
X77647800Y-58645636D02*
X77600180Y-58788493D01*
X77600180Y-58788493D02*
X77600180Y-58883731D01*
X77600180Y-58883731D02*
X77647800Y-59026588D01*
X77647800Y-59026588D02*
X77695419Y-59074207D01*
X77695419Y-59074207D02*
X78028752Y-59074207D01*
X78028752Y-59074207D02*
X78028752Y-58883731D01*
X77600180Y-59502779D02*
X78600180Y-59502779D01*
X78600180Y-59502779D02*
X77600180Y-60074207D01*
X77600180Y-60074207D02*
X78600180Y-60074207D01*
X77600180Y-60550398D02*
X78600180Y-60550398D01*
X78600180Y-60550398D02*
X78600180Y-60788493D01*
X78600180Y-60788493D02*
X78552561Y-60931350D01*
X78552561Y-60931350D02*
X78457323Y-61026588D01*
X78457323Y-61026588D02*
X78362085Y-61074207D01*
X78362085Y-61074207D02*
X78171609Y-61121826D01*
X78171609Y-61121826D02*
X78028752Y-61121826D01*
X78028752Y-61121826D02*
X77838276Y-61074207D01*
X77838276Y-61074207D02*
X77743038Y-61026588D01*
X77743038Y-61026588D02*
X77647800Y-60931350D01*
X77647800Y-60931350D02*
X77600180Y-60788493D01*
X77600180Y-60788493D02*
X77600180Y-60550398D01*
X79589333Y-62987819D02*
X79256000Y-62511628D01*
X79017905Y-62987819D02*
X79017905Y-61987819D01*
X79017905Y-61987819D02*
X79398857Y-61987819D01*
X79398857Y-61987819D02*
X79494095Y-62035438D01*
X79494095Y-62035438D02*
X79541714Y-62083057D01*
X79541714Y-62083057D02*
X79589333Y-62178295D01*
X79589333Y-62178295D02*
X79589333Y-62321152D01*
X79589333Y-62321152D02*
X79541714Y-62416390D01*
X79541714Y-62416390D02*
X79494095Y-62464009D01*
X79494095Y-62464009D02*
X79398857Y-62511628D01*
X79398857Y-62511628D02*
X79017905Y-62511628D01*
X80541714Y-62987819D02*
X79970286Y-62987819D01*
X80256000Y-62987819D02*
X80256000Y-61987819D01*
X80256000Y-61987819D02*
X80160762Y-62130676D01*
X80160762Y-62130676D02*
X80065524Y-62225914D01*
X80065524Y-62225914D02*
X79970286Y-62273533D01*
X79589333Y-49635580D02*
X79541714Y-49683200D01*
X79541714Y-49683200D02*
X79398857Y-49730819D01*
X79398857Y-49730819D02*
X79303619Y-49730819D01*
X79303619Y-49730819D02*
X79160762Y-49683200D01*
X79160762Y-49683200D02*
X79065524Y-49587961D01*
X79065524Y-49587961D02*
X79017905Y-49492723D01*
X79017905Y-49492723D02*
X78970286Y-49302247D01*
X78970286Y-49302247D02*
X78970286Y-49159390D01*
X78970286Y-49159390D02*
X79017905Y-48968914D01*
X79017905Y-48968914D02*
X79065524Y-48873676D01*
X79065524Y-48873676D02*
X79160762Y-48778438D01*
X79160762Y-48778438D02*
X79303619Y-48730819D01*
X79303619Y-48730819D02*
X79398857Y-48730819D01*
X79398857Y-48730819D02*
X79541714Y-48778438D01*
X79541714Y-48778438D02*
X79589333Y-48826057D01*
X80541714Y-49730819D02*
X79970286Y-49730819D01*
X80256000Y-49730819D02*
X80256000Y-48730819D01*
X80256000Y-48730819D02*
X80160762Y-48873676D01*
X80160762Y-48873676D02*
X80065524Y-48968914D01*
X80065524Y-48968914D02*
X79970286Y-49016533D01*
%TO.C,SW1*%
X79550000Y-58929000D02*
X79550000Y-52929000D01*
X85550000Y-58929000D02*
X79550000Y-58929000D01*
X79550000Y-52929000D02*
X85550000Y-52929000D01*
X85550000Y-52929000D02*
X85550000Y-58929000D01*
D11*
X80653553Y-58179000D02*
G75*
G03*
X80653553Y-58179000I-353553J0D01*
G01*
X85153553Y-58179000D02*
G75*
G03*
X85153553Y-58179000I-353553J0D01*
G01*
D10*
X84300000Y-55929000D02*
G75*
G03*
X84300000Y-55929000I-1750000J0D01*
G01*
D11*
X80653553Y-53679000D02*
G75*
G03*
X80653553Y-53679000I-353553J0D01*
G01*
X85153553Y-53679000D02*
G75*
G03*
X85153553Y-53679000I-353553J0D01*
G01*
%TO.C,R1*%
X82295276Y-62010500D02*
X82804724Y-62010500D01*
X82295276Y-63055500D02*
X82804724Y-63055500D01*
%TO.C,C1*%
X82696267Y-49835000D02*
X82403733Y-49835000D01*
X82696267Y-48815000D02*
X82403733Y-48815000D01*
%TD*%
%LPC*%
D12*
%TO.C,SW1*%
X80300000Y-60479000D03*
X80300000Y-51379000D03*
X84800000Y-60479000D03*
X84800000Y-51379000D03*
%TD*%
D13*
%TO.C,R1*%
X81637500Y-62533000D03*
X83462500Y-62533000D03*
%TD*%
D14*
%TO.C,C1*%
X83412500Y-49325000D03*
X81687500Y-49325000D03*
%TD*%
D15*
%TO.C,J2*%
X88900000Y-50800000D03*
D16*
X88900000Y-53340000D03*
%TD*%
D15*
%TO.C,J3*%
X76200000Y-58420000D03*
D16*
X76200000Y-60960000D03*
%TD*%
D15*
%TO.C,J4*%
X88900000Y-58420000D03*
D16*
X88900000Y-60960000D03*
%TD*%
D15*
%TO.C,J1*%
X76200000Y-50800000D03*
D16*
X76200000Y-53340000D03*
%TD*%
%LPD*%
M02*
